<?xml version="1.0" encoding="utf-8"?>
<!-- Generator: Adobe Illustrator 19.0.0, SVG Export Plug-In . SVG Version: 6.00 Build 0)  -->
<svg version="1.1" id="Layer_1" xmlns="http://www.w3.org/2000/svg" xmlns:xlink="http://www.w3.org/1999/xlink" x="0px" y="0px"
	 viewBox="48 1.7 707 790.3" style="enable-background:new 48 1.7 707 790.3;" xml:space="preserve">
<style type="text/css">
	.st0{fill:#9C705A;}
	.st1{fill:#D85D09;}
	.st2{fill:#E0CDCD;}
	.st3{fill:#6BC0AA;}
	.st4{fill:#B1E1E9;}
	.st5{fill:#D6D2D5;}
</style>
<g>
	<path id="XMLID_36_" class="st0" d="M318.1,9.9c-6.3,56.1-4.8,109.6,6.1,164.9c4.4,22.3,8.1,44.5,9.5,67.2
		c1.9,31.1-0.2,62.5-1.1,93.6c-2.6,94.2-5.5,188.5-8.6,282.7c-0.3,8.8,13.3,8.8,13.6,0c3.1-92.9,5.9-185.8,8.5-278.7
		c1.5-54.5,3.1-107.3-7.3-161c-4.3-22.3-8.7-44.4-10.5-67c-2.7-33.9-0.3-68,3.4-101.7C332.6,1.2,319,1.3,318.1,9.9L318.1,9.9z"/>
</g>
<g id="XMLID_35_">
	<path id="XMLID_26_" class="st1" d="M747.7,533.1c0,0-131.2,49.1-343.8,49.1S71,533.1,71,533.1S19.9,786.8,404,786.8
		C798.6,786.9,747.7,533.1,747.7,533.1z"/>
</g>
<path id="XMLID_34_" class="st2" d="M320.3,43.1c0,0-210.1,35.4-223.7,215.1c-9.4,123.4,91.6,230.2,234.1,245
	C330.7,503.3,189.2,314.1,320.3,43.1z"/>
<g id="XMLID_19_">
	<g id="XMLID_42_">
		<g id="XMLID_46_">
			<path id="XMLID_47_" class="st3" d="M409.3,655c-3.5,0.1-7-0.1-10.4-0.1c-3.4-0.1-6.8-0.1-10.1-0.2c-3.3-0.1-6.6-0.1-9.8-0.2
				c-3.2-0.1-6.4-0.3-9.5-0.4c-6.2-0.3-12.2-0.6-18-0.8c-5.8-0.4-11.4-0.8-16.8-1.2c-2.7-0.2-5.4-0.4-8-0.6
				c-2.6-0.2-5.2-0.5-7.7-0.7c-5-0.5-9.8-0.9-14.5-1.3c-2.3-0.2-4.6-0.4-6.8-0.7c-2.2-0.3-4.4-0.5-6.6-0.8c-4.3-0.5-8.4-1-12.4-1.4
				c-31.6-4-52.5-7.9-66.4-10.3c-13.9-2.7-20.8-4.1-24.3-4.8s-3.5-0.7-3.5-0.7c-9.5-1.9-18.4-4-26.6-5.9c-8.2-2-15.9-3.8-22.9-5.7
				c-7.1-1.8-13.5-3.6-19.3-5.2c-5.8-1.7-11.1-3.2-15.7-4.6c-9.3-2.8-16.2-5.1-20.8-6.6c-2.3-0.8-4-1.3-5.2-1.7s-1.7-0.6-1.8-0.5
				c0,0,0.5,0.3,1.7,0.8c1.1,0.5,2.8,1.1,5.1,2c4.6,1.7,11.4,4.1,20.7,7.1c4.6,1.5,9.9,3.1,15.7,4.9c5.8,1.7,12.2,3.6,19.3,5.5
				c7,2,14.7,3.9,22.9,6c8.3,1.9,17.1,4.1,26.6,6.1c0,0,0,0,3.5,0.7c3.5,0.8,10.4,2.1,24.3,4.9c14,2.5,34.9,6.3,66.5,10.3
				c4,0.5,8.1,0.9,12.4,1.4c2.1,0.2,4.3,0.5,6.6,0.8c2.2,0.3,4.5,0.5,6.8,0.7c4.7,0.4,9.5,0.9,14.5,1.3c2.5,0.2,5.1,0.5,7.7,0.7
				s5.3,0.4,8,0.6c5.4,0.4,11,0.8,16.8,1.2c5.8,0.3,11.8,0.6,18,0.8c3.1,0.1,6.3,0.3,9.5,0.4c3.2,0.1,6.5,0.1,9.8,0.2
				c3.3,0.1,6.7,0.1,10.1,0.2c3.4,0.1,6.9,0.2,10.5,0.1c56.7,0.1,99.2-3.7,130.8-7.5c4-0.5,7.8-0.9,11.4-1.4
				c1.8-0.2,3.6-0.5,5.3-0.7c1.7-0.3,3.4-0.5,5.1-0.8c6.6-1,12.6-1.9,18.1-2.7s10.4-1.8,14.8-2.6c4.4-0.8,8.3-1.5,11.8-2.2
				c3.5-0.6,6.5-1.2,9.2-1.7s4.9-1.1,6.9-1.5c3.9-0.9,6.5-1.4,8.2-1.8c3.5-0.8,3.5-0.8,3.5-0.8c4.7-1.1,9.3-2.1,13.8-3.1
				c4.4-1.1,8.7-2.3,12.8-3.3c4.1-1.1,8.1-2.1,11.9-3.1c3.8-1,7.5-1.9,11-3c7-2.1,13.4-4,19.2-5.8s11.1-3.3,15.6-5
				c9.2-3.2,16.1-5.6,20.6-7.2c2.3-0.8,4-1.5,5.1-1.9s1.7-0.7,1.7-0.7s-0.6,0.1-1.8,0.5s-2.9,0.9-5.2,1.6
				c-4.6,1.5-11.6,3.7-20.8,6.7c-4.6,1.6-9.9,3-15.7,4.7s-12.2,3.5-19.2,5.5c-3.5,1.1-7.2,1.9-11,2.9s-7.8,2-11.9,3
				c-4.1,1-8.4,2.1-12.8,3.2c-4.4,1-9,1.9-13.8,3c0,0,0,0-3.5,0.8c-1.7,0.4-4.3,0.9-8.2,1.8c-1.9,0.4-4.2,0.9-6.9,1.5
				c-2.7,0.5-5.7,1.1-9.2,1.7s-7.4,1.4-11.8,2.2c-4.4,0.8-9.3,1.8-14.8,2.6s-11.5,1.7-18.1,2.7c-1.7,0.2-3.3,0.5-5.1,0.8
				c-1.7,0.3-3.5,0.5-5.3,0.7c-3.6,0.4-7.4,0.9-11.4,1.4C508.2,651.4,465.9,655.1,409.3,655z"/>
		</g>
	</g>
</g>
<g id="XMLID_18_">
	<g id="XMLID_49_">
		<g id="XMLID_53_">
			<path id="XMLID_54_" class="st3" d="M412,730.3c-3.2,0.1-6.3,0-9.4,0s-6.1-0.1-9.1-0.1s-5.9-0.1-8.8-0.1
				c-2.9-0.1-5.7-0.2-8.5-0.3c-5.6-0.2-11-0.4-16.3-0.6c-5.2-0.3-10.3-0.6-15.2-0.9c-2.4-0.1-4.8-0.3-7.2-0.4
				c-2.4-0.2-4.7-0.4-6.9-0.6c-4.5-0.4-8.9-0.8-13.1-1.1c-1-0.1-2.1-0.2-3.1-0.3s-2-0.2-3.1-0.3c-2-0.2-4-0.4-5.9-0.6
				c-3.9-0.4-7.6-0.8-11.2-1.2c-28.5-3.4-47.4-6.9-59.9-9.1c-12.5-2.4-18.8-3.6-21.9-4.3c-3.1-0.7-3.1-0.7-3.1-0.7
				c-8.6-1.7-16.6-3.6-24-5.3c-7.4-1.8-14.4-3.5-20.7-5.2c-6.4-1.6-12.1-3.3-17.4-4.7c-5.2-1.6-10-2.9-14.2-4.2
				c-8.4-2.5-14.6-4.6-18.7-6c-2.1-0.7-3.6-1.2-4.7-1.6c-1-0.3-1.6-0.5-1.6-0.5s0.5,0.3,1.5,0.7s2.5,1,4.6,1.8
				c4.1,1.6,10.3,3.8,18.6,6.5c4.2,1.4,8.9,2.8,14.1,4.5c5.3,1.5,11,3.3,17.4,5c6.3,1.8,13.2,3.5,20.7,5.4c7.5,1.8,15.4,3.7,24,5.5
				c0,0,0,0,3.1,0.7s9.4,1.9,22,4.3c12.6,2.2,31.5,5.6,60.1,9.1c3.6,0.4,7.3,0.8,11.2,1.2c1.9,0.2,3.9,0.4,5.9,0.6
				c1,0.1,2,0.2,3.1,0.3c1,0.1,2.1,0.2,3.1,0.3c4.2,0.4,8.6,0.7,13.1,1.1c2.3,0.2,4.6,0.4,6.9,0.6c2.4,0.1,4.8,0.3,7.2,0.4
				c4.9,0.3,9.9,0.6,15.2,0.9c5.2,0.2,10.7,0.4,16.3,0.6c2.8,0.1,5.7,0.2,8.6,0.3c2.9,0,5.9,0.1,8.9,0.1s6,0.1,9.1,0.1
				s6.2,0.1,9.4,0c51.2-0.6,89.4-4.7,117.9-8.7c3.6-0.5,7-1,10.3-1.4c3.3-0.5,6.4-1.1,9.4-1.6c6-1,11.4-2,16.3-2.8
				c1.2-0.2,2.4-0.4,3.6-0.6c1.2-0.2,2.3-0.5,3.4-0.7c2.2-0.5,4.3-0.9,6.3-1.3c4-0.8,7.5-1.6,10.6-2.2c3.1-0.7,5.9-1.2,8.3-1.7
				c2.4-0.6,4.4-1.1,6.2-1.5c3.5-0.9,5.8-1.4,7.4-1.8c3.1-0.8,3.1-0.8,3.1-0.8c4.3-1.1,8.4-2.1,12.4-3.1c3.9-1.1,7.8-2.2,11.5-3.3
				s7.2-2.1,10.7-3.1c3.4-1,6.7-1.9,9.8-3c6.2-2.1,12-4,17.2-5.7c2.6-0.9,5.1-1.7,7.4-2.5c1.2-0.4,2.3-0.8,3.4-1.2
				c1.1-0.4,2.1-0.8,3.2-1.2c8.2-3.1,14.3-5.5,18.4-7c2-0.8,3.6-1.4,4.6-1.8c1-0.4,1.5-0.7,1.5-0.7s-0.5,0.1-1.6,0.4
				c-1,0.3-2.6,0.9-4.7,1.6c-4.1,1.4-10.3,3.6-18.6,6.5c-1,0.4-2.1,0.7-3.2,1.1c-1.1,0.4-2.2,0.8-3.4,1.1c-2.3,0.7-4.8,1.5-7.4,2.3
				c-5.2,1.7-10.9,3.5-17.2,5.5c-3.1,1-6.4,1.9-9.8,2.9c-3.4,1-7,1.9-10.7,3c-3.7,1-7.5,2.1-11.5,3.2c-4,1-8.1,2-12.4,3
				c0,0,0,0-3.1,0.8c-1.5,0.4-3.9,0.9-7.4,1.8c-1.7,0.4-3.8,0.9-6.1,1.5c-2.4,0.5-5.1,1.1-8.2,1.7c-3.1,0.6-6.6,1.4-10.6,2.2
				c-2,0.4-4.1,0.8-6.3,1.3c-1.1,0.2-2.2,0.5-3.4,0.7s-2.4,0.4-3.6,0.6c-4.9,0.8-10.3,1.8-16.3,2.8c-3,0.5-6.1,1.1-9.3,1.6
				c-3.3,0.5-6.7,0.9-10.2,1.4C501.2,725.6,463.1,729.7,412,730.3z"/>
		</g>
	</g>
</g>
<g>
	<g>
		<path id="XMLID_17_" class="st4" d="M170.8,602.8c-13.6-3.3-20.4-4.7-23.8-5.7c-3.4-0.9-3.4-0.9-3.4-0.9c-18.6-4.5-18.9-3.7-0.5,2
			c0,0,0,0,3.4,0.9c3.4,1,10.2,2.5,23.9,5.8c27.4,5.7,27.4,5.7,27.4,5.7c18.9,3.2,19.1,2.3,0.4-2
			C198.2,608.6,198.2,608.6,170.8,602.8z"/>
	</g>
	<g>
		<path id="XMLID_16_" class="st4" d="M236.3,615.1c-3.8-0.5-5.7-0.8-6.6-0.8c-1-0.1-1-0.1-1-0.1c-5.3,0.3-5.2,1.2-0.1,2
			c0,0,0,0,0.9,0s2.8,0.3,6.5,0.8c7.5,1.1,7.5,1.1,7.5,1.1c5.2,0.2,5.3-0.7,0.3-2C243.8,616.3,243.8,616.3,236.3,615.1z"/>
	</g>
	<g>
		<path id="XMLID_15_" class="st4" d="M419.5,627.2c-10.7,0-18.8,0.1-24.8,0.1c-3,0-5.5,0-7.6,0c-2.1-0.1-3.8-0.2-5.1-0.2
			c-5.4-0.2-5.4-0.2-5.4-0.2c-29.4-0.7-29.5,0.3-0.1,2c0,0,0,0,5.4,0.2c1.3,0.1,3,0.1,5.1,0.2c2.1,0,4.6,0,7.6,0
			c6,0,14.1,0,24.9-0.1c10.7-0.5,18.8-0.9,24.8-1.3c3-0.2,5.5-0.3,7.6-0.4c2.1-0.2,3.8-0.4,5.1-0.5c5.3-0.5,5.3-0.5,5.3-0.5
			c29.3-3.5,29.1-4.4-0.2-2c0,0,0,0-5.3,0.5c-1.3,0.1-3,0.3-5.1,0.5c-2.1,0.1-4.6,0.2-7.6,0.4C438.3,626.2,430.2,626.6,419.5,627.2z
			"/>
	</g>
	<g>
		<path id="XMLID_14_" class="st4" d="M654,603.6c-16.8,2.1-16.8,2.1-16.8,2.1c-11.4,2-11.4,2.9,0.2,2c0,0,0,0,16.9-2.2
			c16.8-2.6,16.8-2.6,16.8-2.6c11.4-2.4,11.2-3.3-0.3-2C670.7,601,670.7,601,654,603.6z"/>
	</g>
	<g>
		<path id="XMLID_13_" class="st4" d="M698.4,594.9c-4.1,0.9-4.1,0.9-4.1,0.9c-2.6,0.9-2.9,1.8,0.3,2c0,0,0.1,0.1,4.3-0.9
			c4.2-1.1,4.2-1.1,4.2-1.1c2.7-1.3,2.5-2.2-0.5-2C702.5,593.8,702.5,593.8,698.4,594.9z"/>
	</g>
	<g>
		<path id="XMLID_12_" class="st4" d="M698.8,581.5c-6.8,1.2-6.8,1.2-6.8,1.2c-4.6,1.4-4.5,2.3,0.3,2c0,0,0,0,6.9-1.2
			c6.8-1.2,6.8-1.2,6.8-1.2c4.6-1.4,4.5-2.3-0.3-2C705.8,580.3,705.8,580.3,698.8,581.5z"/>
	</g>
	<g>
		<path id="XMLID_11_" class="st4" d="M241.3,685.1c-12-2-21-3.4-27.8-4.5c-3.4-0.6-6.2-1-8.6-1.4c-2.3-0.5-4.2-0.9-5.7-1.2
			c-6-1.3-6-1.3-6-1.3c-32.7-6.6-33-5.7-0.4,2c0,0,0,0,6,1.3c1.5,0.3,3.4,0.7,5.7,1.2c2.4,0.4,5.2,0.9,8.6,1.4
			c6.8,1.1,15.8,2.6,27.9,4.5c12.1,1.4,21.2,2.5,28.1,3.3c3.4,0.4,6.3,0.7,8.6,1c2.4,0.2,4.3,0.3,5.8,0.5c6.1,0.5,6.1,0.5,6.1,0.5
			c33.4,2,33.4,1,0.2-2c0,0,0,0-6.1-0.5c-1.5-0.1-3.4-0.3-5.8-0.5c-2.4-0.3-5.2-0.6-8.6-1C262.4,687.6,253.4,686.5,241.3,685.1z"/>
	</g>
	<g>
		<path id="XMLID_9_" class="st4" d="M333.3,691.2c-5.1,0-5.1,0-5.1,0c-3.5,0.6-3.5,1.5,0,2c0,0,0,0,5.1,0s5.1,0,5.1,0
			c3.5-0.6,3.5-1.5,0-2C338.4,691.2,338.4,691.2,333.3,691.2z"/>
	</g>
	<g>
		<path id="XMLID_8_" class="st4" d="M148.6,665.7l-5.1-1.6l-0.5-0.2l-0.3,0.2l-0.4,0.2c-0.1,0.1-0.2,0.2-0.4,0.4
			c-0.1,0.2-0.3,0.4-0.4,0.6c-0.1,0.3,0,0.6,0,0.9c0.1,0.2,0.2,0.4,0.4,0.5c0.5,0.4,0.9,0.4,1.2,0.5c0.6,0,0.9-0.2,0.9-0.4
			s-0.2-0.4-0.5-0.7c-0.2-0.1-0.3-0.3-0.4-0.5c0.1-0.1-0.1,0.1-0.3,0.1c0.1,0,0,0,0,0c0.3,0,0.5,0.2,0.4,0.2c0,0,0.1,0,0.2,0
			l0.1-0.1h-0.8l5.3,1.7c2.8,0.9,4.2,1,4.9,1.2s0.7,0.2,0.7,0.2c4,0.3,4.1-0.6,0.4-2c0,0,0,0-0.7-0.2
			C152.7,666.7,151.2,666.6,148.6,665.7z"/>
	</g>
	<g>
		<path id="XMLID_6_" class="st4" d="M396.8,705.3c-10.3,0.2-15.5,0.4-18.1,0.2c-2.6-0.1-2.6-0.1-2.6-0.1c-14.1-0.1-14.3,0.8-0.1,2
			c0,0,0,0,2.6,0.1c2.6,0.2,7.8-0.1,18.2-0.2c10.4-0.7,15.5-0.9,18.1-1.2c2.6-0.2,2.6-0.2,2.6-0.2c14.1-1.7,14-2.6-0.2-2
			c0,0,0,0-2.6,0.2C412.3,704.4,407.1,704.6,396.8,705.3z"/>
	</g>
	<g>
		<path id="XMLID_5_" class="st4" d="M625.9,680.5c-9.3,1.6-13.9,2.7-16.3,2.8c-2.3,0.3-2.3,0.3-2.3,0.3c-12.7,2.2-12.7,3.1,0.3,2
			c0,0,0,0,2.4-0.3c2.4-0.2,7-1.2,16.4-2.9c9.3-2.1,13.9-3,16.2-3.6s2.3-0.6,2.3-0.6c12.5-3.6,12.3-4.5-0.5-2c0,0,0,0-2.3,0.6
			C639.8,677.5,635.2,678.5,625.9,680.5z"/>
	</g>
	<g>
		<path id="XMLID_4_" class="st4" d="M649,657.3c-11.7,2.7-11.7,2.7-11.7,2.7c-7.9,2.4-7.8,3.3,0.5,2c0,0,0,0,11.8-2.7
			c11.7-3.3,11.7-3.3,11.7-3.3c7.8-2.8,7.5-3.7-0.6-2C660.5,654,660.5,654,649,657.3z"/>
	</g>
	<g>
		<path id="XMLID_3_" class="st4" d="M426.3,769.6c-2.7,0.1-5.1,0.1-7.1,0.2c-2.1,0.1-3.8-0.1-5.3-0.1s-2.8-0.1-3.8-0.1
			c-1-0.1-1.9-0.2-2.6-0.2c-2.7-0.3-2.7-0.3-2.7-0.3c-3.7-0.1-6.4-0.6-8.3-0.7c-1.9-0.1-2.8-0.1-2.8,0.1c0,0.2,0.8,0.5,2.6,1
			c1.8,0.4,4.5,1.3,8.3,1.7c0,0,0,0,2.7,0.3c0.7,0.1,1.5,0.1,2.6,0.2c1.1,0,2.3,0.1,3.9,0.1c1.5,0,3.3,0.2,5.4,0.1
			c2.1-0.1,4.5-0.1,7.2-0.2c5.4-0.4,9.5-0.7,12.6-1.1c3-0.3,5.1-0.6,6.4-0.8c2.7-0.4,2.7-0.4,2.7-0.4c14.7-2.8,14.5-3.7-0.3-2
			c0,0,0,0-2.7,0.4c-1.3,0.2-3.4,0.5-6.4,0.8C435.7,768.9,431.7,769.3,426.3,769.6z"/>
	</g>
	<g>
		<path id="XMLID_2_" class="st4" d="M482.8,764.5c-3.9,0.8-3.9,0.8-3.9,0.8c-2.6,1.1-2.3,2,0.4,2c0,0,0,0,3.8-0.8
			c3.8-0.4,3.8-0.4,3.8-0.4c2.6-0.8,2.7-1.7-0.1-2C486.8,764.1,486.8,764.1,482.8,764.5z"/>
	</g>
</g>
<path id="XMLID_1_" class="st5" d="M320.3,43.1c0,0-291.6,215.4,10.4,460.1C330.7,503.3,189.2,314.1,320.3,43.1z"/>
</svg>
