<?xml version="1.0" encoding="utf-8"?>
<!-- Generator: Adobe Illustrator 19.0.0, SVG Export Plug-In . SVG Version: 6.00 Build 0)  -->
<svg version="1.1" id="Layer_1" xmlns="http://www.w3.org/2000/svg" xmlns:xlink="http://www.w3.org/1999/xlink" x="0px" y="0px"
	 viewBox="120 -0.2 852.8 793.2" style="enable-background:new 120 -0.2 852.8 793.2;" xml:space="preserve">
<style type="text/css">
	.st0{opacity:0.2;fill:#4295B6;enable-background:new    ;}
	.st1{fill:#7F6D04;}
	.st2{opacity:0.3;}
	.st3{fill:#1B8409;}
	.st4{fill:#167705;}
	.st5{fill:#187F06;}
	.st6{fill:#1E8E0A;}
	.st7{fill:#914B12;}
	.st8{opacity:0.3;fill:#4A4D6A;enable-background:new    ;}
	.st9{fill:#FBF6FA;}
	.st10{fill:#37D31C;}
</style>
<g>
	<path id="XMLID_43_" class="st0" d="M318.4,622.6c0,0,165.6,88.6,426.2,15.9c0,0-39.4,102.2-181.8,105.7s-156.3-32.4-208.5-60.8
		C302.2,655,318.4,622.6,318.4,622.6z"/>
	<path id="XMLID_42_" class="st0" d="M690.8,793c28.5-10.7,53.8-43.9,58.5-125.3c0,0-37.1,107.7-149.4,107.7
		c0,0,16.5,11.2,38.6,17.6H690.8z"/>
	<g>
		<g>
			<path id="XMLID_41_" class="st1" d="M741.4,88.3c-1.9-0.4-10.5,3-10.1,6.7s4.5,6,6.8,6.2s7.4-1.7,7.4-4.1
				C745.5,94.7,745,90,741.4,88.3z"/>
			<path id="XMLID_40_" class="st1" d="M748.3,94.7c-1.9-0.5-12.7,2.5-12.4,6.1s4.1,9.8,6.3,10.1c2.2,0.3,9.1-1.3,9.2-3.6
				C751.6,105,751.9,96.6,748.3,94.7z"/>
			<path id="XMLID_39_" class="st1" d="M753,106.2c-1.9-0.5-14.8,2-14.6,5.6s3.7,13.6,5.9,13.9c2.2,0.4,10.8-0.8,11-3.1
				C755.4,120.3,756.5,108.1,753,106.2z"/>
			<path id="XMLID_38_" class="st1" d="M760.6,121.1c-1.8-0.6-16.9,1.5-16.9,5.1s3.2,17.3,5.4,17.8s12.5-0.3,12.8-2.7
				C762.2,139,764,123.2,760.6,121.1z"/>
			<path id="XMLID_37_" class="st1" d="M766.1,140.3c-1.8-0.7-19,1-19.1,4.6s2.8,21.1,5,21.6s14.2,0.1,14.6-2.2
				C766.9,162,769.4,142.5,766.1,140.3z"/>
			<path id="XMLID_36_" class="st1" d="M771.2,162.2c-1.8-0.7-21.1,0.4-21.4,4c-0.2,3.6,2.4,24.9,4.5,25.5s16,0.6,16.4-1.7
				C771.2,187.7,774.4,164.5,771.2,162.2z"/>
			<path id="XMLID_35_" class="st1" d="M776.7,186.2c-1.8-0.8-23.3-0.1-23.6,3.5c-0.4,3.6,2,28.6,4.1,29.3s17.7,1,18.2-1.2
				C775.8,215.5,779.8,188.6,776.7,186.2z"/>
			<path id="XMLID_34_" class="st1" d="M777.9,215.6c-1.7-0.9-25.4-0.6-25.9,3s1.6,32.4,3.7,33.2c2.1,0.8,19.4,1.5,20-0.7
				C776.2,248.8,781,218.2,777.9,215.6z"/>
			<path id="XMLID_33_" class="st1" d="M781.5,250c-1.7-0.9-27.5-1.1-28.2,2.5c-0.6,3.6,1.1,36.2,3.2,37c2.1,0.9,21.1,2,21.7-0.3
				C779,287,784.4,252.6,781.5,250z"/>
			<path id="XMLID_32_" class="st1" d="M782.7,285.2c-1.7-1-29.6-1.6-30.4,1.9c-0.8,3.6,0.7,39.9,2.8,40.9c2,0.9,22.8,2.4,23.5,0.2
				C779.4,326,785.6,288,782.7,285.2z"/>
			<path id="XMLID_31_" class="st1" d="M785.3,324c-1.6-1.1-31.8-2.1-32.7,1.4s0.3,43.7,2.3,44.7s24.5,2.9,25.3,0.7
				C781.1,368.6,788.1,326.9,785.3,324z"/>
			<path id="XMLID_30_" class="st1" d="M785.2,367c-1.6-1.1-33.9-2.6-34.9,0.9s-0.1,47.5,1.9,48.6s26.2,3.3,27.1,1.2
				C780.2,415.5,787.8,370,785.2,367z"/>
		</g>
		<g class="st2">
			<path id="XMLID_29_" class="st1" d="M745.5,96.6c-0.1-2.5-0.6-6.7-4.1-8.3c-0.3-0.1-0.8,0-1.4,0.1c0,0.7,0,1.4,0,2.1
				C742,92.4,743.8,94.4,745.5,96.6z"/>
			<path id="XMLID_28_" class="st1" d="M751.2,108c0.1-0.2,0.2-0.4,0.2-0.7c0.1-2.3,0.4-10.8-3.2-12.6c-0.6-0.1-2.1,0.1-3.9,0.5
				C747.4,99,749.8,103.2,751.2,108z"/>
			<path id="XMLID_27_" class="st1" d="M752.6,114.7c0.4,3.5,0.3,6.8-0.3,10c1.6-0.5,2.8-1.2,2.9-2.1c0.2-2.3,1.2-14.5-2.3-16.4
				c-0.4-0.1-1.2-0.1-2.3,0C751.6,108.8,752.3,111.6,752.6,114.7z"/>
			<path id="XMLID_26_" class="st1" d="M751.4,128.8c0.3,0.3,0.6,0.7,0.9,1c4.3,4.5,6.5,8.7,7.2,13.2c1.4-0.4,2.4-1,2.5-1.7
				c0.3-2.3,2-18.1-1.4-20.2c-0.8-0.3-4.3,0-7.9,0.7C752.5,124.2,752.1,126.5,751.4,128.8z"/>
			<path id="XMLID_25_" class="st1" d="M757.9,158.5c-0.6,2.5,0.2,5.2,1.5,8c3.5-0.3,7-1,7.1-2.2c0.3-2.3,2.9-21.8-0.4-24
				c-0.7-0.3-3.8-0.2-7.2,0.3C760.4,145.9,759.7,151.5,757.9,158.5z"/>
			<path id="XMLID_24_" class="st1" d="M765,178.1c1.1,4.4,1.8,8.9,2.2,13.4c2-0.3,3.4-0.8,3.5-1.5c0.4-2.3,3.7-25.5,0.5-27.8
				c-1-0.4-7.6-0.2-13.2,0.7C759.3,167.9,763.8,173.4,765,178.1z"/>
			<path id="XMLID_23_" class="st1" d="M767.7,200.4c0,6.4-0.3,12.7-0.7,19.1c4.2-0.1,8.1-0.6,8.3-1.7c0.5-2.3,4.5-29.2,1.4-31.6
				c-0.8-0.3-5.3-0.4-10.1-0.1C767.3,190.8,767.7,195.6,767.7,200.4z"/>
			<path id="XMLID_22_" class="st1" d="M766.8,223.5c-0.2,3.2-1.4,6-0.7,9.2c0.6,3.2,1.7,6.9,1.5,10.2c-0.2,3-1.4,6.7-0.5,9.6
				c4.4,0,8.4-0.4,8.7-1.5c0.6-2.2,5.3-32.9,2.3-35.4c-0.7-0.4-5.5-0.5-10.7-0.3C767.1,218.1,766.9,220.8,766.8,223.5z"/>
			<path id="XMLID_21_" class="st1" d="M767,252.6c0.9,2.8,2.7,5.7,3.1,8.5c0.9,5.4-1.1,9-3.5,13.8c-2.1,4.2-0.3,1.5,2.7,3.4
				c1.8,1.1,3.9,2.6,4.8,4.6c1.1,2.6,1.5,4.9,1.3,7.2c1.6-0.2,2.7-0.5,2.9-1c0.7-2.2,6.1-36.6,3.2-39.2c-0.9-0.5-7.9-0.7-14.8-0.4
				C766.6,250.6,766.7,251.7,767,252.6z"/>
			<path id="XMLID_20_" class="st1" d="M774,295.7c-2.2,5.7-5.2,8.6-1.8,14.2c2.2,3.8,1,10.2-1.1,13.7c-0.7,1.2,0,3.4,1.2,5.8
				c3.4-0.1,6.1-0.4,6.4-1.1c0.8-2.2,7-40.2,4.1-43c-0.5-0.3-3.8-0.6-8-0.7C776,288.3,775.6,291.7,774,295.7z"/>
			<path id="XMLID_19_" class="st1" d="M785.3,324c-0.7-0.5-7-0.9-13.9-1c-0.1,0.2-0.2,0.5-0.3,0.6c-1.8,3,5.2,11.3,5.5,15.5
				c0.3,3.8-0.2,6.8-1.5,9.7c2.7,2.2,4.7,5,4.5,8.7c-0.4,5.2-3.2,9.2-4.2,14.2c0,0.1,0,0.1,0,0.2c2.8-0.1,4.8-0.4,5-1
				C781.1,368.6,788.1,326.9,785.3,324z"/>
			<path id="XMLID_18_" class="st1" d="M785.2,367c-0.5-0.3-3.7-0.7-8.1-1c-0.7,1.8-1.4,3.6-1.8,5.6c-1.4,6.5,0,12.9-2.4,19.4
				c-2.6,6.8-4.6,13.7-9.1,19.6c-3.7,4.9-10.7,2-9.8-4.1c0.2-1.2,0.4-2.5,0.7-3.7c0-0.1,0-0.1-0.1-0.2c-0.2-1.1-0.5-2.1-0.6-3.2v0.1
				c-0.7,1.7-2,2.8-3.5,3.3c0.4,7.4,1,13.2,1.7,13.6c2,1.1,26.2,3.3,27.1,1.2C780.2,415.5,787.8,370,785.2,367z"/>
		</g>
	</g>
	<g>
		<path id="XMLID_17_" class="st3" d="M742.3,81.6c0,0,48.5-19.4,101.7-5.4l-11.4,8.4c0,0,45.1,9.9,63.1,39.2c0,0-28.5-4.6-34.6-1.6
			c0,0,16.5,38.3,55.3,54.7c0,0-52.7-9.5-88.7-45c0,0,5.1,23.2,14.5,36.5c0,0-79.8-43.8-99.9-81.3c0,0,46.7,5.4,78,26.8
			C820.3,113.9,799.8,86.3,742.3,81.6z"/>
		<path id="XMLID_16_" class="st3" d="M877.5,147.4c-11.8-4.4-23.2-9.7-34.9-14.6c-2.8-1.2-11.1-4.7-12.3-5.2
			c-0.4-0.2-0.9-0.4-1.3-0.6c-9.8,5.7-22.8,6.5-32.5,0.2c-13.5-8.7-27.2-17-42-23.5c29.5,32.7,87.7,64.6,87.7,64.6
			c-9.3-13.3-14.5-36.5-14.5-36.5c36.1,35.6,88.7,45,88.7,45C899.2,169.6,886.4,158,877.5,147.4z"/>
	</g>
	<g>
		<path id="XMLID_15_" class="st4" d="M738.5,85c0,0-23.7-46.6-72.9-71.2l3,13.9c0,0-40.4-22.3-73.3-12.2c0,0,24.5,15.4,27.1,21.6
			c0,0-37.7,17.9-77.6,4.6c0,0,45.8,27.7,96.4,24.7c0,0-19.2,14-35,17.9c0,0,88.9,19.8,128.7,4.8c0,0-38.6-26.7-76.4-31.3
			C658.6,57.8,692.3,50.6,738.5,85z"/>
		<path id="XMLID_14_" class="st4" d="M638.7,66.5c-1.6-2.9-2.7-6-3.3-9.5c-6.8,0.3-13.5,0.5-20.3,0.6c-13.7,0.2-27.3-0.3-40.4-2.2
			C591.8,61.6,614.6,67.4,638.7,66.5z"/>
		<path id="XMLID_13_" class="st4" d="M721.1,88.1c-1.2-0.2-2-0.3-2.5-0.4c-0.3,0-0.7-0.1-1.1-0.1c-2.1-0.2-4.2-0.5-6.3-0.7
			c-5.4-0.5-10.7-1-16.1-1.3c-9.4-0.7-18.7-1.2-28.1-2c-11.6-0.9-21.9-6.7-27.6-15.8c-5.1,3.6-20.3,13.5-33.1,16.6
			c0,0,88.9,19.8,128.7,4.8c0,0-0.4-0.3-1.2-0.8C729.7,88.9,725.4,88.8,721.1,88.1z"/>
	</g>
	<g>
		<path id="XMLID_12_" class="st5" d="M742.3,78.4c0,0,48.7-31.7,102.4-13c0,0-3.3-10.1-7.7-11.5c0,0,37.6-16.1,79.5,9.5
			c0,0-2.5-23.6-55.9-38.3c0,0,6.9-10.9,19.1-12.2c0,0-52.5-19.6-90.8,2c0,0-3.7-9.8,1.6-15.1c0,0-51.5,14.2-52.2,78.6
			c0,0,13.5-45.2,53.8-50.1C792.2,28.3,762.8,40.5,742.3,78.4z"/>
		<path id="XMLID_11_" class="st5" d="M904.5,47.9c-1-0.5-1.7-0.8-2.2-1c-0.3-0.1-0.7-0.2-1.1-0.4c-5.9-2.2-11.9-4.1-18.1-5.6
			c-5.9-1.5-11.8-3-17.7-4.5c-5.6,4.7-12.8,7.5-20.2,7.3c-5.3-0.1-10.7-0.2-16,0.2c-2.3,0.2-4.7,0.4-7,0.6c-0.2,0.1-1.2,0.2-3,0.5
			c-9,1.7-17.9,4-26.6,7c-2.9,1-5.8,2-8.6,3.2c-0.9,0.3-1.5,0.6-2,0.8c-3.4,1.5-6.9,3.1-10.2,4.8c-8.6,4.3-17,8.8-25.3,13.6
			c-0.9,0.5-1.9,1-2.9,1.5c-0.5,0.9-1,1.7-1.5,2.6c0,0,48.7-31.7,102.4-13c0,0-3.3-10.1-7.7-11.5c0,0,37.6-16.1,79.5,9.5
			c0,0-0.6-5.7-7.6-13.2C907.4,49.3,906,48.6,904.5,47.9z"/>
	</g>
	<g>
		<path id="XMLID_10_" class="st6" d="M732.5,98.7c0,0-33.5,47.5-16.8,101.9c0,0-9.9-3.6-11.3-8.2c0,0-17.5,37,6.6,79.8
			c0,0-23.5-3.4-36.2-57.2c0,0-11.1,6.5-12.9,18.7c0,0-17.7-53.2,5.3-90.6c0,0-9.6-4-15.1,1.1c0,0,16.1-50.9,80.4-49.3
			c0,0-45.6,11.9-52,52C680.6,146.7,693.9,117.8,732.5,98.7z"/>
		<path id="XMLID_9_" class="st6" d="M715.2,115.8c-0.6,0.6-1.4,1.6-2,2.3c-1.5,2.3-2.9,4.7-4.1,7.2c-0.4,0.9-1.5,3.5-1.8,4.1
			c-0.3,0.9-0.7,1.8-1,2.7c-1.2,3.7-2.4,7.4-3.4,11.1c-1.8,6.9-3.3,13.8-4.4,20.8c-0.1,1.4-0.8,7.3-0.9,8.9
			c-0.2,2.7-0.3,5.4-0.3,8.1c-0.1,11.8-5.8,20.5-13.8,25.7c0.7,3.6,1.4,7.1,2.3,10.7c3.3,13.2,5.9,26.6,9.2,39.9
			c0.4,1.6,0.8,3.3,1.2,4.9c8.2,9,14.8,10,14.8,10c-24.1-42.7-6.6-79.8-6.6-79.8c1.3,4.5,11.3,8.2,11.3,8.2
			C699,146.2,732.5,98.7,732.5,98.7c-1.9,0.9-3.7,1.9-5.5,2.9C724.5,107.1,720.5,112.1,715.2,115.8z"/>
	</g>
	<g>
		<g>
			<path id="XMLID_76_" class="st1" d="M450.7,159.3c-1.5-0.3-8.1,2.3-7.8,5.2s3.5,4.6,5.2,4.8s5.7-1.3,5.7-3.2
				C453.9,164.2,453.5,160.6,450.7,159.3z"/>
			<path id="XMLID_75_" class="st1" d="M456.1,164.2c-1.5-0.4-9.8,1.9-9.6,4.7c0.2,2.8,3.2,7.6,4.9,7.8c1.7,0.2,7-1,7.1-2.8
				C458.6,172.2,458.8,165.7,456.1,164.2z"/>
			<path id="XMLID_74_" class="st1" d="M459.7,173.1c-1.5-0.4-11.4,1.5-11.3,4.3c0.2,2.8,2.9,10.5,4.6,10.7c1.7,0.3,8.3-0.6,8.5-2.4
				C461.5,184,462.4,174.6,459.7,173.1z"/>
			<path id="XMLID_73_" class="st1" d="M465.5,184.6c-1.4-0.5-13,1.2-13,3.9c0,2.8,2.5,13.4,4.2,13.7c1.7,0.4,9.6-0.2,9.9-2.1
				C466.8,198.4,468.2,186.2,465.5,184.6z"/>
			<path id="XMLID_72_" class="st1" d="M469.8,199.4c-1.4-0.5-14.7,0.8-14.7,3.5s2.2,16.3,3.9,16.7c1.7,0.4,11,0.1,11.3-1.7
				C470.4,216.2,472.3,201.1,469.8,199.4z"/>
			<path id="XMLID_71_" class="st1" d="M473.7,216.3c-1.4-0.5-16.3,0.3-16.5,3.1s1.9,19.2,3.5,19.7s12.3,0.5,12.7-1.3
				C473.7,236,476.2,218.1,473.7,216.3z"/>
			<path id="XMLID_70_" class="st1" d="M478,234.8c-1.4-0.6-18-0.1-18.2,2.7c-0.3,2.8,1.5,22.1,3.2,22.6c1.6,0.5,13.7,0.8,14-0.9
				C477.3,257.4,480.4,236.7,478,234.8z"/>
			<path id="XMLID_69_" class="st1" d="M478.9,257.5c-1.3-0.7-19.6-0.5-20,2.3s1.2,25,2.9,25.6c1.6,0.6,15,1.2,15.4-0.5
				C477.6,283.1,481.3,259.5,478.9,257.5z"/>
			<path id="XMLID_68_" class="st1" d="M481.7,284.1c-1.3-0.7-21.2-0.8-21.8,1.9c-0.5,2.8,0.8,27.9,2.5,28.6
				c1.6,0.7,16.3,1.5,16.7-0.2C479.7,312.6,483.9,286.1,481.7,284.1z"/>
			<path id="XMLID_67_" class="st1" d="M482.6,311.2c-1.3-0.8-22.8-1.2-23.5,1.5c-0.6,2.8,0.5,30.8,2.2,31.6
				c1.5,0.7,17.6,1.9,18.1,0.2C480.1,342.7,484.8,313.4,482.6,311.2z"/>
			<path id="XMLID_66_" class="st1" d="M484.6,341.2c-1.2-0.8-24.5-1.6-25.2,1.1s0.2,33.7,1.8,34.5c1.5,0.8,18.9,2.2,19.5,0.5
				C481.4,375.6,486.8,343.4,484.6,341.2z"/>
			<path id="XMLID_65_" class="st1" d="M484.5,374.4c-1.2-0.8-26.2-2-26.9,0.7c-0.8,2.7-0.1,36.7,1.5,37.5
				c1.5,0.8,20.2,2.5,20.9,0.9C480.7,411.8,486.5,376.7,484.5,374.4z"/>
		</g>
		<g class="st2">
			<path id="XMLID_64_" class="st1" d="M453.9,165.7c-0.1-1.9-0.5-5.2-3.2-6.4c-0.2-0.1-0.6,0-1.1,0.1c0,0.5,0,1.1,0,1.6
				C451.2,162.4,452.6,164,453.9,165.7z"/>
			<path id="XMLID_63_" class="st1" d="M458.3,174.5c0.1-0.2,0.2-0.3,0.2-0.5c0.1-1.8,0.3-8.3-2.5-9.7c-0.5-0.1-1.6,0.1-3,0.4
				C455.4,167.5,457.2,170.8,458.3,174.5z"/>
			<path id="XMLID_62_" class="st1" d="M459.4,179.7c0.3,2.7,0.2,5.2-0.2,7.7c1.2-0.4,2.2-0.9,2.2-1.6c0.2-1.8,0.9-11.2-1.8-12.7
				c-0.3-0.1-0.9-0.1-1.8,0C458.6,175.1,459.1,177.3,459.4,179.7z"/>
			<path id="XMLID_61_" class="st1" d="M458.4,190.5c0.2,0.2,0.5,0.5,0.7,0.8c3.3,3.5,5,6.7,5.6,10.2c1.1-0.3,1.9-0.8,1.9-1.3
				c0.2-1.8,1.5-14-1.1-15.6c-0.6-0.2-3.3,0-6.1,0.5C459.3,187,459,188.8,458.4,190.5z"/>
			<path id="XMLID_60_" class="st1" d="M463.5,213.5c-0.5,1.9,0.2,4,1.2,6.2c2.7-0.2,5.4-0.8,5.5-1.7c0.2-1.8,2.2-16.8-0.3-18.5
				c-0.5-0.2-2.9-0.2-5.6,0.2C465.4,203.7,464.9,208.1,463.5,213.5z"/>
			<path id="XMLID_59_" class="st1" d="M468.9,228.6c0.8,3.4,1.4,6.9,1.7,10.3c1.5-0.2,2.6-0.6,2.7-1.2c0.3-1.8,2.9-19.7,0.4-21.5
				c-0.8-0.3-5.9-0.2-10.2,0.5C464.5,220.7,468,225,468.9,228.6z"/>
			<path id="XMLID_58_" class="st1" d="M471,245.8c0,4.9-0.2,9.8-0.5,14.7c3.2-0.1,6.3-0.5,6.4-1.3c0.4-1.8,3.5-22.5,1.1-24.4
				c-0.6-0.2-4.1-0.3-7.8-0.1C470.7,238.4,471,242.1,471,245.8z"/>
			<path id="XMLID_57_" class="st1" d="M470.3,263.6c-0.2,2.5-1.1,4.6-0.5,7.1c0.5,2.5,1.3,5.3,1.2,7.9c-0.2,2.3-1.1,5.2-0.4,7.4
				c3.4,0,6.5-0.3,6.7-1.2c0.5-1.7,4.1-25.4,1.8-27.3c-0.5-0.3-4.2-0.4-8.3-0.2C470.6,259.5,470.4,261.5,470.3,263.6z"/>
			<path id="XMLID_56_" class="st1" d="M470.5,286.1c0.7,2.2,2.1,4.4,2.4,6.6c0.7,4.2-0.8,6.9-2.7,10.6c-1.6,3.2-0.2,1.2,2.1,2.6
				c1.4,0.8,3,2,3.7,3.5c0.8,2,1.2,3.8,1,5.6c1.2-0.2,2.1-0.4,2.2-0.8c0.5-1.7,4.7-28.2,2.5-30.3c-0.7-0.4-6.1-0.5-11.4-0.3
				C470.2,284.5,470.3,285.4,470.5,286.1z"/>
			<path id="XMLID_55_" class="st1" d="M475.9,319.3c-1.7,4.4-4,6.6-1.4,11c1.7,2.9,0.8,7.9-0.8,10.6c-0.5,0.9,0,2.6,0.9,4.5
				c2.6-0.1,4.7-0.3,4.9-0.8c0.6-1.7,5.4-31,3.2-33.2c-0.4-0.2-2.9-0.5-6.2-0.5C477.4,313.6,477.1,316.3,475.9,319.3z"/>
			<path id="XMLID_54_" class="st1" d="M484.6,341.2c-0.5-0.4-5.4-0.7-10.7-0.8c-0.1,0.2-0.2,0.4-0.2,0.5c-1.4,2.3,4,8.7,4.2,12
				c0.2,2.9-0.2,5.2-1.2,7.5c2.1,1.7,3.6,3.9,3.5,6.7c-0.3,4-2.5,7.1-3.2,11c0,0.1,0,0.1,0,0.2c2.2-0.1,3.7-0.3,3.9-0.8
				C481.4,375.6,486.8,343.4,484.6,341.2z"/>
			<path id="XMLID_53_" class="st1" d="M484.5,374.4c-0.4-0.2-2.9-0.5-6.3-0.8c-0.5,1.4-1.1,2.8-1.4,4.3c-1.1,5,0,10-1.9,15
				c-2,5.2-3.5,10.6-7,15.1c-2.9,3.8-8.3,1.5-7.6-3.2c0.2-0.9,0.3-1.9,0.5-2.9c0-0.1,0-0.1-0.1-0.2c-0.2-0.8-0.4-1.6-0.5-2.5v0.1
				c-0.5,1.3-1.5,2.2-2.7,2.5c0.3,5.7,0.8,10.2,1.3,10.5c1.5,0.8,20.2,2.5,20.9,0.9C480.7,411.8,486.5,376.7,484.5,374.4z"/>
		</g>
	</g>
	<g>
		<path id="XMLID_52_" class="st3" d="M451.4,154.1c0,0,37.4-15,78.5-4.2l-8.8,6.5c0,0,34.8,7.6,48.7,30.3c0,0-22-3.5-26.7-1.2
			c0,0,12.7,29.6,42.7,42.2c0,0-40.7-7.3-68.5-34.7c0,0,3.9,17.9,11.2,28.2c0,0-61.6-33.8-77.1-62.7c0,0,36,4.2,60.2,20.7
			C511.6,179,495.8,157.7,451.4,154.1z"/>
		<path id="XMLID_51_" class="st3" d="M555.8,204.9c-9.1-3.4-17.9-7.5-26.9-11.3c-2.2-0.9-8.6-3.6-9.5-4c-0.3-0.2-0.7-0.3-1-0.5
			c-7.6,4.4-17.6,5-25.1,0.2c-10.4-6.7-21-13.1-32.4-18.1c22.8,25.2,67.7,49.9,67.7,49.9c-7.2-10.3-11.2-28.2-11.2-28.2
			c27.9,27.5,68.5,34.7,68.5,34.7C572.5,222,562.6,213.1,555.8,204.9z"/>
	</g>
	<g>
		<path id="XMLID_50_" class="st4" d="M448.5,156.7c0,0-18.3-36-56.3-54.9l2.3,10.7c0,0-31.2-17.2-56.6-9.4c0,0,18.9,11.9,20.9,16.7
			c0,0-29.1,13.8-59.9,3.5c0,0,35.3,21.4,74.4,19.1c0,0-14.8,10.8-27,13.8c0,0,68.6,15.3,99.3,3.7c0,0-29.8-20.6-59-24.2
			C386.8,135.7,412.8,130.2,448.5,156.7z"/>
		<path id="XMLID_49_" class="st4" d="M371.5,142.5c-1.2-2.2-2.1-4.6-2.5-7.3c-5.2,0.2-10.4,0.4-15.7,0.5
			c-10.6,0.2-21.1-0.2-31.2-1.7C335.3,138.7,352.9,143.2,371.5,142.5z"/>
		<path id="XMLID_48_" class="st4" d="M435.1,159.1c-0.9-0.2-1.5-0.2-1.9-0.3c-0.2,0-0.5-0.1-0.8-0.1c-1.6-0.2-3.2-0.4-4.9-0.5
			c-4.2-0.4-8.3-0.8-12.4-1c-7.3-0.5-14.4-0.9-21.7-1.5c-9-0.7-16.9-5.2-21.3-12.2c-3.9,2.8-15.7,10.4-25.5,12.8
			c0,0,68.6,15.3,99.3,3.7c0,0-0.3-0.2-0.9-0.6C441.7,159.7,438.4,159.7,435.1,159.1z"/>
	</g>
	<g>
		<path id="XMLID_47_" class="st5" d="M451.4,151.6c0,0,37.6-24.5,79-10c0,0-2.5-7.8-5.9-8.9c0,0,29-12.4,61.4,7.3
			c0,0-1.9-18.2-43.1-29.6c0,0,5.3-8.4,14.7-9.4c0,0-40.5-15.1-70.1,1.5c0,0-2.9-7.6,1.2-11.7c0,0-39.7,11-40.3,60.7
			c0,0,10.4-34.9,41.5-38.7C489.9,113,467.2,122.4,451.4,151.6z"/>
		<path id="XMLID_46_" class="st5" d="M576.6,128.1c-0.8-0.4-1.3-0.6-1.7-0.8c-0.2-0.1-0.5-0.2-0.8-0.3c-4.6-1.7-9.2-3.2-14-4.3
			c-4.6-1.2-9.1-2.3-13.7-3.5c-4.3,3.6-9.9,5.8-15.6,5.6c-4.1-0.1-8.3-0.2-12.3,0.2c-1.8,0.2-3.6,0.3-5.4,0.5
			c-0.2,0.1-0.9,0.2-2.3,0.4c-6.9,1.3-13.8,3.1-20.5,5.4c-2.2,0.8-4.5,1.5-6.6,2.5c-0.7,0.2-1.2,0.5-1.5,0.6
			c-2.6,1.2-5.3,2.4-7.9,3.7c-6.6,3.3-13.1,6.8-19.5,10.5c-0.7,0.4-1.5,0.8-2.2,1.2c-0.4,0.7-0.8,1.3-1.2,2c0,0,37.6-24.5,79-10
			c0,0-2.5-7.8-5.9-8.9c0,0,29-12.4,61.4,7.3c0,0-0.5-4.4-5.9-10.2C578.8,129.2,577.8,128.6,576.6,128.1z"/>
	</g>
	<g>
		<path id="XMLID_45_" class="st6" d="M443.9,167.3c0,0-25.9,36.7-13,78.6c0,0-7.6-2.8-8.7-6.3c0,0-13.5,28.6,5.1,61.6
			c0,0-18.1-2.6-27.9-44.1c0,0-8.6,5-10,14.4c0,0-13.7-41.1,4.1-69.9c0,0-7.4-3.1-11.7,0.8c0,0,12.4-39.3,62-38
			c0,0-35.2,9.2-40.1,40.1C403.8,204.4,414.1,182,443.9,167.3z"/>
		<path id="XMLID_44_" class="st6" d="M430.5,180.5c-0.5,0.5-1.1,1.2-1.5,1.8c-1.2,1.8-2.2,3.6-3.2,5.6c-0.3,0.7-1.2,2.7-1.4,3.2
			c-0.2,0.7-0.5,1.4-0.8,2.1c-0.9,2.9-1.9,5.7-2.6,8.6c-1.4,5.3-2.5,10.6-3.4,16.1c-0.1,1.1-0.6,5.6-0.7,6.9
			c-0.2,2.1-0.2,4.2-0.2,6.3c-0.1,9.1-4.5,15.8-10.6,19.8c0.5,2.8,1.1,5.5,1.8,8.3c2.5,10.2,4.6,20.5,7.1,30.8
			c0.3,1.2,0.6,2.5,0.9,3.8c6.3,6.9,11.4,7.7,11.4,7.7c-18.6-33-5.1-61.6-5.1-61.6c1,3.5,8.7,6.3,8.7,6.3c-12.9-42,13-78.6,13-78.6
			c-1.5,0.7-2.9,1.5-4.2,2.2C437.7,173.8,434.6,177.7,430.5,180.5z"/>
	</g>
	<path id="XMLID_8_" class="st0" d="M154.4,495.5c-48.2,26.8,151.4,107,315.3,137.5c132.8,24.7,472.9-36.7,472.9-126.5
		c0,0-184.4-29.7-285.2-40.7S187.4,477.1,154.4,495.5z"/>
	<path id="XMLID_7_" class="st7" d="M154.4,506.5c-48.2-26.8,187-84.3,315.3-126.5s472.9,36.7,472.9,126.5c0,0-188.8-11-289.6,0
		S187.4,524.8,154.4,506.5z"/>
	<path id="XMLID_6_" class="st8" d="M859.4,429.2c-1,6.4-3.5,12.7-7.7,18.4c-10.9,14.9-25,25.6-41.9,33
		c-23.6,10.2-48.5,14.3-74.2,11.3c-27.5-3.2-54-10.4-81.2-15.3c-1.2-0.2-12-1.8-7.4-1.3c-2.6-0.3-5.1-0.6-7.7-0.7
		c-6.5-0.4-13.1-0.5-19.6-0.4c-14,0.1-27.9,0.7-41.9,1.3c-28.2,1.2-56.5,0.7-84.7,2.2c-7.8,0.4-15.6,0.9-23.4,1.7
		c-3.3,0.3-6.6,0.7-9.9,1.1c-1.1,0.1-1.9,0.2-2.5,0.3c-0.5,0.1-1.2,0.2-2.1,0.3c-13.2,2.1-25.9,5.5-38.9,8.4
		c-29,6.6-58.9,11.8-88.6,12.9c-28.9,1.1-58-0.2-87-0.4c-14.6-0.1-29.5-1.9-44-0.3c-1.6,0.2-2.6,0.3-3.2,0.3
		c-0.5,0.1-1.1,0.2-1.8,0.3c-3.4,0.5-6.7,1-10.1,1.5c-8.4,1.2-16.8,2.3-25.3,2.4c-1,0-1.9,0-2.8-0.1c0.3,0.2,0.5,0.3,0.8,0.5
		c33,18.3,397.7,11,498.6,0c100.8-11,289.6,0,289.6,0C942.6,478.6,909.2,451.7,859.4,429.2z"/>
	<g id="XMLID_5_">
		<path id="XMLID_83_" class="st9" d="M942.6,506.5c0,0-3.1-0.1-8.9-0.3c-5.8-0.2-14.3-0.4-25.1-0.7c-10.8-0.2-23.9-0.5-38.9-0.8
			c-7.5-0.1-15.5-0.3-23.9-0.3c-8.4-0.1-17.3-0.2-26.5-0.3c-9.2-0.1-18.9,0-28.8,0c-10,0.1-20.3,0.1-30.9,0.3
			c-5.3,0.1-10.7,0.2-16.1,0.3c-5.4,0.1-10.9,0.3-16.5,0.5s-11.2,0.3-16.8,0.6c-5.7,0.3-11.4,0.5-17.1,0.8
			c-5.7,0.4-11.5,0.8-17.4,1.2c-2.9,0.2-5.8,0.5-8.8,0.8c-2.9,0.3-5.9,0.6-8.8,0.8c-1.5,0.1-2.9,0.3-4.4,0.4c-1.5,0.2-3,0.3-4.5,0.5
			c-3,0.3-6,0.6-9,0.9c-6,0.6-12.1,1-18.1,1.5c-24.3,1.8-48.9,3.1-73.6,4.2c-24.7,1-49.4,1.8-73.7,2.4c-24.3,0.6-48.2,0.9-71.4,1.1
			c-23.1,0.2-45.5,0.2-66.7,0c-21.2-0.2-41.3-0.6-59.8-1.2c-18.5-0.5-35.5-1.3-50.5-2.3c-15-0.9-28.1-2-38.9-3.3
			c-10.7-1.2-19.1-2.7-24.8-4.1c-2.8-0.7-4.9-1.4-6.3-2c-0.7-0.3-1.2-0.6-1.5-0.7c-0.3-0.2-0.5-0.3-0.5-0.3s0.2,0.1,0.5,0.2
			c0.4,0.1,0.9,0.4,1.6,0.7c1.4,0.5,3.5,1.2,6.4,1.7c5.6,1.2,14.1,2.2,24.8,3.1c10.7,0.9,23.8,1.5,38.8,2s32,0.7,50.5,0.9
			c9.2,0.1,18.9,0.1,28.8,0.1c10,0,20.3-0.1,30.9-0.1c21.2-0.2,43.5-0.5,66.6-0.9c11.6-0.3,23.3-0.5,35.2-0.8
			c11.9-0.3,23.9-0.6,36.1-1c24.3-0.7,48.9-1.6,73.5-2.6s49.3-2.2,73.4-3.9c6-0.4,12.1-0.9,18-1.4c3-0.3,6-0.5,8.9-0.8
			c1.5-0.1,3-0.3,4.4-0.4c1.5-0.1,3-0.3,4.5-0.4c3-0.3,6-0.5,8.9-0.8c3-0.2,5.9-0.6,8.9-0.7c5.9-0.3,11.7-0.7,17.5-1
			s11.5-0.4,17.2-0.6c2.8-0.1,5.7-0.2,8.5-0.3c2.8,0,5.6-0.1,8.4-0.1c5.6-0.1,11.1-0.2,16.5-0.2s10.8,0,16.1,0s10.5,0.1,15.7,0.1
			c5.2,0.1,10.2,0.1,15.2,0.2c10,0.3,19.6,0.4,28.9,0.7c18.5,0.5,35.5,1.2,50.5,2c15,0.7,28.1,1.5,38.9,2.1
			c10.8,0.7,19.2,1.3,25,1.7C939.5,506.3,942.6,506.5,942.6,506.5z"/>
	</g>
	<path id="XMLID_4_" class="st9" d="M665.9,534.7c0,0,1-0.3,2.9-0.7c1.9-0.5,4.7-1.2,8.2-1.9c3.5-0.8,7.9-1.7,12.8-2.7
		c5-1,10.6-2.1,16.7-3.1c6.1-1.1,12.8-2.2,19.9-3.2c7.1-1.1,14.5-2.1,22.3-3.1c7.7-0.8,15.7-1.9,23.9-2.6c8.2-0.7,16.4-1.5,24.7-2.1
		c4.1-0.3,8.3-0.5,12.4-0.8c4.1-0.2,8.3-0.4,12.3-0.6c4.1-0.2,8.1-0.4,12.2-0.5c4-0.1,8-0.1,11.9-0.1s7.7-0.1,11.5-0.1
		c3.8,0.1,7.4,0.2,11,0.2c7.1,0.1,13.9,0.3,20.1,0.7c6.2,0.3,11.9,0.7,17,1c5,0.5,9.4,0.9,13.1,1.3c7.2,0.8,11.3,1.3,11.3,1.3
		s-4.2,0.1-11.4,0.2c-3.6,0-8,0-13.1,0c-5.1,0.1-10.7,0.3-17,0.4c-6.2,0-12.9,0.4-20,0.6c-3.6,0.1-7.2,0.2-10.9,0.3
		c-3.7,0.2-7.5,0.3-11.4,0.5s-7.8,0.3-11.8,0.5c-4,0.3-8,0.5-12.1,0.7s-8.2,0.5-12.3,0.7c-4.1,0.3-8.2,0.6-12.4,0.9
		c-8.3,0.4-16.5,1.2-24.6,1.8c-8.1,0.7-16.1,1.3-23.8,2s-15.2,1.4-22.3,2.1c-7.1,0.7-13.8,1.4-20,2c-12.4,1.3-22.7,2.4-29.9,3.1
		C670,534.3,665.9,534.7,665.9,534.7z"/>
	<path id="XMLID_3_" class="st9" d="M227,530.4c0,0,1.6,0.1,4.5,0.2c2.9,0.2,7.2,0.3,12.7,0.5s12.1,0.6,19.7,0.8
		c7.6,0.3,16.2,0.6,25.5,0.9c9.4,0.2,19.5,0.5,30.2,0.7c10.7,0.3,22,0.6,33.7,0.6c11.7,0.1,23.8,0.2,36.1,0.4
		c3.1,0.1,6.2,0.1,9.2,0.2c3.1,0,6.2-0.1,9.3-0.1c6.2-0.1,12.4-0.1,18.7-0.2c12.5,0,24.9,0,37.2,0c12.3-0.3,24.4-0.5,36.1-0.8
		s23-0.4,33.7-0.6c2.7,0,5.3-0.1,7.9-0.1c2.6,0,5.2-0.2,7.7-0.3c5-0.2,9.9-0.4,14.6-0.6c18.7-0.7,34.3-1.2,45.3-1.4
		c10.9-0.2,17.2-0.3,17.2-0.3s-6.2,0.7-17.1,1.8c-10.9,1.1-26.4,2.6-45.1,4.2c-9.3,0.7-19.5,1.9-30.2,2.2
		c-10.7,0.5-22.1,1.1-33.8,1.6c-5.9,0.2-11.8,0.5-17.8,0.8c-6,0.2-12.1,0.6-18.3,0.6c-12.3,0.1-24.8,0.2-37.3,0.3
		c-6.3,0-12.5,0-18.7,0c-3.1,0-6.2,0-9.3,0c-3.1-0.1-6.2-0.1-9.3-0.2c-12.3-0.3-24.4-0.7-36.1-1c-11.7-0.2-23-1-33.8-1.6
		c-10.7-0.6-20.9-1.2-30.2-2s-17.9-1.6-25.5-2.3c-7.6-0.6-14.2-1.5-19.6-2.1s-9.7-1.2-12.6-1.6C228.6,530.6,227,530.4,227,530.4z"/>
	<path id="XMLID_2_" class="st9" d="M137.6,483.1c0,0-0.7,0.3-1.9,1c-1.2,0.7-2.9,1.8-4.9,3.4s-4.3,3.7-5.9,6.6
		c-0.7,1.4-1.4,3.1-1.3,4.7v0.6l0.1,0.6c0.1,0.4,0.1,0.9,0.2,1.2c0.3,1,0.6,2.1,1.1,2.9c1.6,3.6,4.7,6.9,8.4,9.8c1,0.7,2,1.4,3,2.1
		c1,0.7,2.2,1.2,3.3,1.8c2.2,1.3,4.6,2.3,7.1,3.4c2.4,1.2,5.1,2,7.7,2.9c2.6,1,5.4,1.7,8.1,2.6c1.4,0.4,2.7,0.8,4.1,1.3
		c1.4,0.4,2.8,0.7,4.2,1.1c2.8,0.7,5.7,1.4,8.5,2.1c2.9,0.6,5.7,1.2,8.6,1.8c2.9,0.6,5.7,1.2,8.6,1.7c5.7,0.9,11.3,2.2,16.8,2.9
		c5.5,0.8,10.7,1.7,15.8,2.5c5,0.7,9.8,1.4,14.2,2.1c4.4,0.7,8.4,1.3,12,1.7c3.6,0.5,6.7,1,9.3,1.4c5.1,0.8,8.1,1.3,8.1,1.3
		s-3,0.1-8.2,0.1c-2.6,0-5.8,0-9.4,0c-1.8,0-3.7,0-5.8-0.1c-2,0-4.2-0.2-6.4-0.3c-4.5-0.2-9.3-0.5-14.4-0.8
		c-5.1-0.4-10.5-0.9-16-1.6c-1.4-0.1-2.8-0.3-4.2-0.5s-2.8-0.4-4.3-0.6c-2.9-0.4-5.7-0.8-8.6-1.3c-2.9-0.4-5.8-1-8.7-1.6
		s-5.9-1.2-8.8-1.7c-2.9-0.8-5.8-1.5-8.7-2.3c-1.4-0.4-2.9-0.7-4.3-1.2c-1.4-0.5-2.9-0.9-4.3-1.4c-2.8-0.9-5.7-1.8-8.4-3
		c-2.7-1.2-5.4-2.1-8-3.5c-2.6-1.3-5.1-2.5-7.5-4.1c-1.2-0.8-2.4-1.5-3.5-2.3c-1.1-0.9-2.1-1.7-3.2-2.6c-4.1-3.6-7.4-7.8-9-12.6
		c-0.5-1.2-0.6-2.2-0.9-3.3c-0.2-0.7-0.1-1.3-0.2-1.9v-0.5l0.1-0.9c0.2-2.4,1.3-4.4,2.4-6c2.4-3.2,5.2-5,7.4-6.3
		c2.3-1.3,4.2-2.1,5.5-2.6C136.8,483.3,137.6,483.1,137.6,483.1z"/>
	<path id="XMLID_1_" class="st9" d="M955.9,483.1c0,0,0.7,0.1,1.8,0.4s2.8,0.8,4.6,1.8c1.8,0.9,3.8,2.3,5.7,4.2
		c1.8,1.9,3.5,4.5,4.3,7.4c0.4,1.5,0.6,3,0.5,4.5c0,1.5-0.4,2.9-0.8,4.3c-0.5,1.3-1.1,2.5-1.7,3.5c-0.7,1-1.4,1.9-2.1,2.7
		c-0.7,0.8-1.4,1.4-2,1.9s-1.2,1-1.7,1.3c-1,0.6-1.6,0.9-1.6,0.9s0.3-0.6,0.8-1.7c0.5-1,1.2-2.5,1.9-4.2c0.2-0.4,0.4-0.9,0.5-1.3
		c0.1-0.5,0.4-0.9,0.5-1.4c0.3-1,0.6-2,0.7-3c0.3-2,0.3-4.1-0.3-6.1c-1-4.1-4.1-7.8-6.6-10.6c-1.3-1.4-2.4-2.5-3.2-3.3
		C956.4,483.5,955.9,483.1,955.9,483.1z"/>
	<path class="st10" d="M254.7,292.5c-0.7,1.4-1.4,2.7-2.4,3.8l2.3-4.9C254.7,291.7,254.7,292.1,254.7,292.5z"/>
</g>
</svg>
